<svg width="18" height="18" viewBox="0 0 18 18" fill="none" xmlns="http://www.w3.org/2000/svg">
<path fill-rule="evenodd" clip-rule="evenodd" d="M1.31248 1.48956C0.94429 1.48956 0.645813 1.78804 0.645813 2.15623C0.645813 2.52442 0.94429 2.8229 1.31248 2.8229H3.37347L3.91313 5.51917C3.91606 5.53797 3.91978 5.55652 3.92426 5.57477L5.01302 11.0145L5.01313 11.0151C5.10332 11.4685 5.35002 11.8757 5.71009 12.1655C6.06848 12.454 6.51646 12.608 6.97633 12.6008H13.301C13.7609 12.608 14.2089 12.454 14.5673 12.1655C14.9275 11.8756 15.1743 11.4681 15.2644 11.0145L15.2644 11.0145L15.2653 11.0095L16.3083 5.54042C16.3455 5.34526 16.2938 5.14366 16.1671 4.99058C16.0405 4.83749 15.8521 4.74887 15.6534 4.74887H5.11873L4.57363 2.02539C4.51127 1.71382 4.23768 1.48956 3.91993 1.48956H1.31248ZM6.32062 10.7538L5.3856 6.08221H14.8476L13.9562 10.7568C13.9267 10.9027 13.8471 11.0336 13.7312 11.1269C13.6147 11.2207 13.469 11.2705 13.3195 11.2676L13.3195 11.2675H13.3067H6.97064V11.2674L6.95787 11.2676C6.80838 11.2705 6.66265 11.2207 6.54618 11.1269C6.42972 11.0332 6.34994 10.9014 6.32081 10.7548L6.32062 10.7538ZM5.21037 15.1936C5.21037 14.4656 5.80049 13.8755 6.52844 13.8755C7.25638 13.8755 7.8465 14.4656 7.8465 15.1936C7.8465 15.9215 7.25638 16.5117 6.52844 16.5117C5.80049 16.5117 5.21037 15.9215 5.21037 15.1936ZM12.3804 15.1936C12.3804 14.4656 12.9705 13.8755 13.6984 13.8755C14.4264 13.8755 15.0165 14.4656 15.0165 15.1936C15.0165 15.9215 14.4264 16.5117 13.6984 16.5117C12.9705 16.5117 12.3804 15.9215 12.3804 15.1936Z" fill="#2D3440"/>
</svg>
