<svg width="18" height="18" viewBox="0 0 18 18" fill="none" xmlns="http://www.w3.org/2000/svg">
<path fill-rule="evenodd" clip-rule="evenodd" d="M10.2083 1.87498C10.2083 1.50679 10.5068 1.20831 10.875 1.20831H13.875C14.4496 1.20831 15.0007 1.43659 15.4071 1.84291C15.8134 2.24924 16.0417 2.80034 16.0417 3.37498V13.875C16.0417 14.4496 15.8134 15.0007 15.4071 15.407C15.0007 15.8134 14.4496 16.0416 13.875 16.0416H10.875C10.5068 16.0416 10.2083 15.7432 10.2083 15.375C10.2083 15.0068 10.5068 14.7083 10.875 14.7083H13.875C14.096 14.7083 14.308 14.6205 14.4643 14.4642C14.6205 14.308 14.7083 14.096 14.7083 13.875V3.37498C14.7083 3.15397 14.6205 2.942 14.4643 2.78572C14.308 2.62944 14.096 2.54165 13.875 2.54165H10.875C10.5068 2.54165 10.2083 2.24317 10.2083 1.87498ZM6.65354 4.40358C6.91389 4.14323 7.336 4.14323 7.59635 4.40358L11.3418 8.14901C11.4651 8.27 11.5417 8.43855 11.5417 8.62498C11.5417 8.81141 11.4651 8.97998 11.3418 9.10096L7.59635 12.8464C7.336 13.1067 6.91389 13.1067 6.65354 12.8464C6.3932 12.586 6.3932 12.1639 6.65354 11.9036L9.26547 9.29165H1.87499C1.50681 9.29165 1.20833 8.99317 1.20833 8.62498C1.20833 8.25679 1.50681 7.95831 1.87499 7.95831H9.26547L6.65354 5.34638C6.3932 5.08604 6.3932 4.66393 6.65354 4.40358Z" fill="#2D3440"/>
</svg>
